# MagicaVoxel @ Ephtracy

# group
o 

# material
mtllib Head.mtl
usemtl palette

# normals
vn -1 0 0
vn 1 0 0
vn 0 0 1
vn 0 0 -1
vn 0 -1 0
vn 0 1 0

# texcoords
vt 0.0722656 0.5
vt 0.0957031 0.5
vt 0.958984 0.5
vt 0.994141 0.5

# verts
v -0.3 0 0.3
v -0.3 0 -0.4
v -0.3 0.5 0.3
v -0.3 0.5 0.2
v -0.3 0.7 0.3
v -0.3 0.7 0.2
v -0.3 0.7 0
v -0.3 0.7 -0.1
v -0.3 0.7 -0.4
v -0.3 0.8 0.1
v -0.3 0.8 0
v -0.3 0.9 0.1
v -0.3 0.9 -0.1
v -0.2 0.1 0.4
v -0.2 0.1 0.3
v -0.2 0.4 0.4
v -0.2 0.4 0.3
v -0.2 0.7 0.2
v -0.2 0.7 0
v -0.2 0.7 -0.1
v -0.2 0.7 -0.3
v -0.2 0.8 0.2
v -0.2 0.8 0.1
v -0.2 0.8 0
v -0.2 0.8 -0.1
v -0.2 0.8 -0.3
v 0 0.2 0.4
v 0 0.2 0.3
v 0 0.3 0.4
v 0 0.3 0.3
v 0.2 0.2 0.4
v 0.2 0.2 0.3
v 0.2 0.3 0.4
v 0.2 0.3 0.3
v 0.2 0.8 0.1
v 0.2 0.8 -0.1
v 0.2 0.9 0.1
v 0.2 0.9 -0.1
v -0.1 0.2 0.4
v -0.1 0.2 0.3
v -0.1 0.3 0.4
v -0.1 0.3 0.3
v -0.1 0.8 0.1
v -0.1 0.8 -0.1
v -0.1 0.9 0.1
v -0.1 0.9 -0.1
v 0.1 0.2 0.4
v 0.1 0.2 0.3
v 0.1 0.3 0.4
v 0.1 0.3 0.3
v 0.3 0.1 0.4
v 0.3 0.1 0.3
v 0.3 0.4 0.4
v 0.3 0.4 0.3
v 0.3 0.7 0.2
v 0.3 0.7 0
v 0.3 0.7 -0.1
v 0.3 0.7 -0.3
v 0.3 0.8 0.2
v 0.3 0.8 0.1
v 0.3 0.8 0
v 0.3 0.8 -0.1
v 0.3 0.8 -0.3
v 0.4 0 0.3
v 0.4 0 -0.4
v 0.4 0.5 0.3
v 0.4 0.5 0.2
v 0.4 0.7 0.3
v 0.4 0.7 0.2
v 0.4 0.7 0
v 0.4 0.7 -0.1
v 0.4 0.7 -0.4
v 0.4 0.8 0.1
v 0.4 0.8 0
v 0.4 0.9 0.1
v 0.4 0.9 -0.1
v -0.2 0.1 0.4
v -0.2 0.4 0.4
v -0.1 0.2 0.4
v -0.1 0.3 0.4
v 0 0.2 0.4
v 0 0.3 0.4
v 0.1 0.2 0.4
v 0.1 0.3 0.4
v 0.2 0.2 0.4
v 0.2 0.3 0.4
v 0.3 0.1 0.4
v 0.3 0.4 0.4
v -0.3 0 0.3
v -0.3 0.5 0.3
v -0.3 0.7 0.3
v -0.2 0.1 0.3
v -0.2 0.4 0.3
v -0.2 0.5 0.3
v -0.2 0.6 0.3
v -0.1 0.2 0.3
v -0.1 0.3 0.3
v -0.1 0.5 0.3
v -0.1 0.6 0.3
v -0.1 0.7 0.3
v 0 0.2 0.3
v 0 0.3 0.3
v 0.1 0.2 0.3
v 0.1 0.3 0.3
v 0.2 0.2 0.3
v 0.2 0.3 0.3
v 0.2 0.5 0.3
v 0.2 0.6 0.3
v 0.2 0.7 0.3
v 0.3 0.1 0.3
v 0.3 0.4 0.3
v 0.3 0.5 0.3
v 0.3 0.6 0.3
v 0.4 0 0.3
v 0.4 0.5 0.3
v 0.4 0.7 0.3
v -0.2 0.7 0.2
v -0.2 0.8 0.2
v -0.1 0.7 0.2
v 0.2 0.7 0.2
v 0.3 0.7 0.2
v 0.3 0.8 0.2
v -0.3 0.8 0.1
v -0.3 0.9 0.1
v -0.2 0.8 0.1
v -0.1 0.8 0.1
v -0.1 0.9 0.1
v 0.2 0.8 0.1
v 0.2 0.9 0.1
v 0.3 0.8 0.1
v 0.4 0.8 0.1
v 0.4 0.9 0.1
v -0.3 0.7 0
v -0.3 0.8 0
v -0.2 0.7 0
v -0.2 0.8 0
v 0.3 0.7 0
v 0.3 0.8 0
v 0.4 0.7 0
v 0.4 0.8 0
v -0.3 0.7 -0.1
v -0.3 0.9 -0.1
v -0.2 0.7 -0.1
v -0.2 0.8 -0.1
v -0.1 0.8 -0.1
v -0.1 0.9 -0.1
v 0.2 0.8 -0.1
v 0.2 0.9 -0.1
v 0.3 0.7 -0.1
v 0.3 0.8 -0.1
v 0.4 0.7 -0.1
v 0.4 0.9 -0.1
v -0.2 0.7 -0.3
v -0.2 0.8 -0.3
v 0.3 0.7 -0.3
v 0.3 0.8 -0.3
v -0.3 0 -0.4
v -0.3 0.7 -0.4
v 0.4 0 -0.4
v 0.4 0.7 -0.4
v -0.3 0 0.3
v 0.4 0 0.3
v -0.3 0 -0.4
v 0.4 0 -0.4
v -0.2 0.1 0.4
v 0.3 0.1 0.4
v -0.2 0.1 0.3
v 0.3 0.1 0.3
v -0.1 0.3 0.4
v 0 0.3 0.4
v 0.1 0.3 0.4
v 0.2 0.3 0.4
v -0.1 0.3 0.3
v 0 0.3 0.3
v 0.1 0.3 0.3
v 0.2 0.3 0.3
v -0.3 0.8 0.1
v -0.2 0.8 0.1
v 0.3 0.8 0.1
v 0.4 0.8 0.1
v -0.3 0.8 0
v -0.2 0.8 0
v 0.3 0.8 0
v 0.4 0.8 0
v -0.1 0.2 0.4
v 0 0.2 0.4
v 0.1 0.2 0.4
v 0.2 0.2 0.4
v -0.1 0.2 0.3
v 0 0.2 0.3
v 0.1 0.2 0.3
v 0.2 0.2 0.3
v -0.2 0.4 0.4
v 0.3 0.4 0.4
v -0.2 0.4 0.3
v 0.3 0.4 0.3
v -0.3 0.7 0.3
v -0.1 0.7 0.3
v 0.2 0.7 0.3
v 0.4 0.7 0.3
v -0.3 0.7 0.2
v -0.2 0.7 0.2
v -0.1 0.7 0.2
v 0.2 0.7 0.2
v 0.3 0.7 0.2
v 0.4 0.7 0.2
v -0.3 0.7 0
v -0.2 0.7 0
v 0.3 0.7 0
v 0.4 0.7 0
v -0.3 0.7 -0.1
v -0.2 0.7 -0.1
v 0.3 0.7 -0.1
v 0.4 0.7 -0.1
v -0.2 0.7 -0.3
v 0.3 0.7 -0.3
v -0.3 0.7 -0.4
v 0.4 0.7 -0.4
v -0.2 0.8 0.2
v 0.3 0.8 0.2
v -0.2 0.8 0.1
v -0.1 0.8 0.1
v 0.2 0.8 0.1
v 0.3 0.8 0.1
v -0.2 0.8 -0.1
v -0.1 0.8 -0.1
v 0.2 0.8 -0.1
v 0.3 0.8 -0.1
v -0.2 0.8 -0.3
v 0.3 0.8 -0.3
v -0.3 0.9 0.1
v -0.1 0.9 0.1
v 0.2 0.9 0.1
v 0.4 0.9 0.1
v -0.3 0.9 -0.1
v -0.1 0.9 -0.1
v 0.2 0.9 -0.1
v 0.4 0.9 -0.1

# faces
f 3/2/1 2/2/1 1/2/1
f 4/2/1 2/2/1 3/2/1
f 5/3/1 4/3/1 3/3/1
f 6/2/1 2/2/1 4/2/1
f 6/3/1 4/3/1 5/3/1
f 7/2/1 2/2/1 6/2/1
f 8/2/1 2/2/1 7/2/1
f 9/2/1 2/2/1 8/2/1
f 11/1/1 8/1/1 7/1/1
f 12/1/1 11/1/1 10/1/1
f 13/1/1 8/1/1 11/1/1
f 13/1/1 11/1/1 12/1/1
f 16/1/1 15/1/1 14/1/1
f 17/1/1 15/1/1 16/1/1
f 22/2/1 19/2/1 18/2/1
f 23/2/1 19/2/1 22/2/1
f 24/2/1 19/2/1 23/2/1
f 25/2/1 21/2/1 20/2/1
f 26/2/1 21/2/1 25/2/1
f 29/1/1 28/1/1 27/1/1
f 30/1/1 28/1/1 29/1/1
f 33/1/1 32/1/1 31/1/1
f 34/1/1 32/1/1 33/1/1
f 37/1/1 36/1/1 35/1/1
f 38/1/1 36/1/1 37/1/1
f 39/1/2 40/1/2 41/1/2
f 41/1/2 40/1/2 42/1/2
f 43/1/2 44/1/2 45/1/2
f 45/1/2 44/1/2 46/1/2
f 47/1/2 48/1/2 49/1/2
f 49/1/2 48/1/2 50/1/2
f 51/1/2 52/1/2 53/1/2
f 53/1/2 52/1/2 54/1/2
f 55/2/2 56/2/2 59/2/2
f 59/2/2 56/2/2 60/2/2
f 60/2/2 56/2/2 61/2/2
f 57/2/2 58/2/2 62/2/2
f 62/2/2 58/2/2 63/2/2
f 64/2/2 65/2/2 66/2/2
f 66/2/2 65/2/2 67/2/2
f 66/3/2 67/3/2 68/3/2
f 67/2/2 65/2/2 69/2/2
f 68/3/2 67/3/2 69/3/2
f 69/2/2 65/2/2 70/2/2
f 70/2/2 65/2/2 71/2/2
f 71/2/2 65/2/2 72/2/2
f 70/1/2 71/1/2 74/1/2
f 73/1/2 74/1/2 75/1/2
f 74/1/2 71/1/2 76/1/2
f 75/1/2 74/1/2 76/1/2
f 79/1/3 78/1/3 77/1/3
f 80/1/3 78/1/3 79/1/3
f 81/1/3 79/1/3 77/1/3
f 82/1/3 78/1/3 80/1/3
f 83/1/3 81/1/3 77/1/3
f 83/1/3 82/1/3 81/1/3
f 84/1/3 78/1/3 82/1/3
f 84/1/3 82/1/3 83/1/3
f 85/1/3 83/1/3 77/1/3
f 86/1/3 78/1/3 84/1/3
f 87/1/3 85/1/3 77/1/3
f 87/1/3 86/1/3 85/1/3
f 88/1/3 78/1/3 86/1/3
f 88/1/3 86/1/3 87/1/3
f 92/2/3 90/2/3 89/2/3
f 93/2/3 90/2/3 92/2/3
f 94/3/3 91/3/3 90/3/3
f 94/2/3 90/2/3 93/2/3
f 95/3/3 91/3/3 94/3/3
f 98/2/3 94/2/3 93/2/3
f 98/4/3 95/4/3 94/4/3
f 99/3/3 91/3/3 95/3/3
f 99/4/3 95/4/3 98/4/3
f 100/3/3 91/3/3 99/3/3
f 101/2/3 97/2/3 96/2/3
f 102/2/3 97/2/3 101/2/3
f 105/2/3 104/2/3 103/2/3
f 106/2/3 104/2/3 105/2/3
f 107/2/3 98/2/3 93/2/3
f 107/2/3 99/2/3 98/2/3
f 107/2/3 100/2/3 99/2/3
f 108/2/3 100/2/3 107/2/3
f 109/2/3 100/2/3 108/2/3
f 110/2/3 92/2/3 89/2/3
f 111/2/3 107/2/3 93/2/3
f 112/4/3 108/4/3 107/4/3
f 112/2/3 107/2/3 111/2/3
f 113/3/3 109/3/3 108/3/3
f 113/4/3 108/4/3 112/4/3
f 114/2/3 112/2/3 111/2/3
f 114/2/3 110/2/3 89/2/3
f 114/2/3 111/2/3 110/2/3
f 115/3/3 113/3/3 112/3/3
f 115/2/3 112/2/3 114/2/3
f 116/3/3 109/3/3 113/3/3
f 116/3/3 113/3/3 115/3/3
f 119/2/3 118/2/3 117/2/3
f 120/2/3 118/2/3 119/2/3
f 121/2/3 118/2/3 120/2/3
f 122/2/3 118/2/3 121/2/3
f 125/1/3 124/1/3 123/1/3
f 126/1/3 124/1/3 125/1/3
f 127/1/3 124/1/3 126/1/3
f 130/1/3 129/1/3 128/1/3
f 131/1/3 129/1/3 130/1/3
f 132/1/3 129/1/3 131/1/3
f 135/1/3 134/1/3 133/1/3
f 136/1/3 134/1/3 135/1/3
f 139/1/3 138/1/3 137/1/3
f 140/1/3 138/1/3 139/1/3
f 141/1/4 142/1/4 143/1/4
f 143/1/4 142/1/4 144/1/4
f 144/1/4 142/1/4 145/1/4
f 145/1/4 142/1/4 146/1/4
f 147/1/4 148/1/4 150/1/4
f 149/1/4 150/1/4 151/1/4
f 150/1/4 148/1/4 152/1/4
f 151/1/4 150/1/4 152/1/4
f 153/2/4 154/2/4 155/2/4
f 155/2/4 154/2/4 156/2/4
f 157/2/4 158/2/4 159/2/4
f 159/2/4 158/2/4 160/2/4
f 163/2/5 162/2/5 161/2/5
f 164/2/5 162/2/5 163/2/5
f 167/1/5 166/1/5 165/1/5
f 168/1/5 166/1/5 167/1/5
f 173/1/5 170/1/5 169/1/5
f 174/1/5 170/1/5 173/1/5
f 175/1/5 172/1/5 171/1/5
f 176/1/5 172/1/5 175/1/5
f 181/1/5 178/1/5 177/1/5
f 182/1/5 178/1/5 181/1/5
f 183/1/5 180/1/5 179/1/5
f 184/1/5 180/1/5 183/1/5
f 185/1/6 186/1/6 189/1/6
f 189/1/6 186/1/6 190/1/6
f 187/1/6 188/1/6 191/1/6
f 191/1/6 188/1/6 192/1/6
f 193/1/6 194/1/6 195/1/6
f 195/1/6 194/1/6 196/1/6
f 197/3/6 198/3/6 201/3/6
f 201/3/6 198/3/6 202/3/6
f 198/2/6 199/2/6 203/2/6
f 202/3/6 198/3/6 203/3/6
f 199/3/6 200/3/6 204/3/6
f 203/2/6 199/2/6 204/2/6
f 204/3/6 200/3/6 205/3/6
f 205/3/6 200/3/6 206/3/6
f 201/2/6 202/2/6 207/2/6
f 207/2/6 202/2/6 208/2/6
f 205/2/6 206/2/6 209/2/6
f 209/2/6 206/2/6 210/2/6
f 211/2/6 212/2/6 215/2/6
f 213/2/6 214/2/6 216/2/6
f 211/2/6 215/2/6 217/2/6
f 215/2/6 216/2/6 217/2/6
f 216/2/6 214/2/6 218/2/6
f 217/2/6 216/2/6 218/2/6
f 219/2/6 220/2/6 221/2/6
f 221/2/6 220/2/6 222/2/6
f 222/2/6 220/2/6 223/2/6
f 223/2/6 220/2/6 224/2/6
f 222/2/6 223/2/6 226/2/6
f 226/2/6 223/2/6 227/2/6
f 225/2/6 226/2/6 229/2/6
f 227/2/6 228/2/6 229/2/6
f 226/2/6 227/2/6 229/2/6
f 229/2/6 228/2/6 230/2/6
f 231/1/6 232/1/6 235/1/6
f 235/1/6 232/1/6 236/1/6
f 233/1/6 234/1/6 237/1/6
f 237/1/6 234/1/6 238/1/6
